# xmcd CD database file
#
# Track frame offsets:
#	150
#	16481
#	38808
#	56682
#	75136
#	98610
#	119214
#	137200
#	157027
#	167728
#	187282
#
# Disc length: 2801 seconds
#
# Revision: 3
# Processed by: cddbd v1.5.1PL2 Copyright (c) Steve Scherf et al.
# Submitted via: CDex 1.60beta1-cs1
#
DISCID=930aef0b
DTITLE=大塚愛 - LOVE PUNCH
DYEAR=2004
DGENRE=JPop
TTITLE0=pretty voice
TTITLE1=桃ノ花ビラ
TTITLE2=さくらんぼ
TTITLE3=GIRLY
TTITLE4=雨の中のメロディー
TTITLE5=シャボン玉
TTITLE6=石川大阪友好条約
TTITLE7=片想いダイヤル
TTITLE8=ハニー
TTITLE9=甘えんぼ
TTITLE10=Always Together
EXTD=YEAR: 2004
EXTT0=
EXTT1=
EXTT2=
EXTT3=
EXTT4=
EXTT5=
EXTT6=
EXTT7=
EXTT8=
EXTT9=
EXTT10=
PLAYORDER=
